<svg xmlns="http://www.w3.org/2000/svg" xmlns:xlink="http://www.w3.org/1999/xlink" width="500" zoomAndPan="magnify" viewBox="0 0 375 374.999991" height="500" preserveAspectRatio="xMidYMid meet" version="1.0"><defs><clipPath id="a75e76365c"><path d="M 248.019531 83.058594 L 278.042969 83.058594 L 278.042969 314.796875 L 248.019531 314.796875 Z M 248.019531 83.058594 " clip-rule="nonzero"/></clipPath><clipPath id="cc77d05869"><path d="M 263.03125 83.058594 C 271.320312 83.058594 278.042969 89.777344 278.042969 98.070312 L 278.042969 299.683594 C 278.042969 307.972656 271.320312 314.691406 263.03125 314.691406 C 254.738281 314.691406 248.019531 307.972656 248.019531 299.683594 L 248.019531 98.070312 C 248.019531 89.777344 254.738281 83.058594 263.03125 83.058594 Z M 263.03125 83.058594 " clip-rule="nonzero"/></clipPath><clipPath id="b24b235284"><path d="M 41 6 L 202 6 L 202 166 L 41 166 Z M 41 6 " clip-rule="nonzero"/></clipPath><clipPath id="d294e1d226"><path d="M 186.328125 0.0117188 L 207.339844 21.023438 L 56.390625 171.972656 L 35.378906 150.960938 Z M 186.328125 0.0117188 " clip-rule="nonzero"/></clipPath><clipPath id="40cd44f349"><path d="M 196.835938 10.519531 C 199.621094 13.304688 201.1875 17.082031 201.1875 21.023438 C 201.1875 24.964844 199.621094 28.746094 196.835938 31.53125 L 66.96875 161.398438 C 64.179688 164.183594 60.402344 165.75 56.460938 165.75 C 52.519531 165.75 48.742188 164.183594 45.953125 161.398438 C 43.167969 158.609375 41.601562 154.832031 41.601562 150.890625 C 41.601562 146.949219 43.167969 143.171875 45.953125 140.382812 L 175.820312 10.519531 C 178.609375 7.730469 182.386719 6.164062 186.328125 6.164062 C 190.269531 6.164062 194.046875 7.730469 196.835938 10.519531 Z M 196.835938 10.519531 " clip-rule="nonzero"/></clipPath><clipPath id="7d335cad51"><path d="M 171 6 L 332 6 L 332 166 L 171 166 Z M 171 6 " clip-rule="nonzero"/></clipPath><clipPath id="416d5f7381"><path d="M 337.46875 150.886719 L 316.457031 171.902344 L 165.507812 20.953125 L 186.519531 -0.0625 Z M 337.46875 150.886719 " clip-rule="nonzero"/></clipPath><clipPath id="904e919f93"><path d="M 326.964844 161.394531 C 324.175781 164.179688 320.398438 165.746094 316.457031 165.746094 C 312.515625 165.746094 308.738281 164.179688 305.949219 161.394531 L 176.082031 31.527344 C 173.296875 28.742188 171.730469 24.960938 171.730469 21.023438 C 171.730469 17.082031 173.296875 13.300781 176.082031 10.515625 C 178.871094 7.726562 182.648438 6.164062 186.589844 6.164062 C 190.53125 6.164062 194.308594 7.726562 197.097656 10.515625 L 326.964844 140.382812 C 329.75 143.167969 331.316406 146.949219 331.316406 150.886719 C 331.316406 154.828125 329.75 158.609375 326.964844 161.394531 Z M 326.964844 161.394531 " clip-rule="nonzero"/></clipPath><clipPath id="6804ab3b8d"><path d="M 171.3125 17.621094 L 201.335938 17.621094 L 201.335938 375 L 171.3125 375 Z M 171.3125 17.621094 " clip-rule="nonzero"/></clipPath><clipPath id="4303df24ae"><path d="M 186.324219 17.621094 C 194.613281 17.621094 201.335938 24.339844 201.335938 32.632812 L 201.335938 359.988281 C 201.335938 368.277344 194.613281 375 186.324219 375 C 178.035156 375 171.3125 368.277344 171.3125 359.988281 L 171.3125 32.632812 C 171.3125 24.339844 178.035156 17.621094 186.324219 17.621094 Z M 186.324219 17.621094 " clip-rule="nonzero"/></clipPath><clipPath id="773c0d222d"><path d="M 94.21875 83.058594 L 124.242188 83.058594 L 124.242188 314.796875 L 94.21875 314.796875 Z M 94.21875 83.058594 " clip-rule="nonzero"/></clipPath><clipPath id="492f0cb34a"><path d="M 109.230469 83.058594 C 117.519531 83.058594 124.242188 89.777344 124.242188 98.070312 L 124.242188 299.683594 C 124.242188 307.972656 117.519531 314.691406 109.230469 314.691406 C 100.9375 314.691406 94.21875 307.972656 94.21875 299.683594 L 94.21875 98.070312 C 94.21875 89.777344 100.9375 83.058594 109.230469 83.058594 Z M 109.230469 83.058594 " clip-rule="nonzero"/></clipPath><clipPath id="fc39c0a12d"><path d="M 103.082031 179.8125 L 269.503906 179.8125 L 269.503906 209.273438 L 103.082031 209.273438 Z M 103.082031 179.8125 " clip-rule="nonzero"/></clipPath><clipPath id="9f8143c840"><path d="M 269.503906 194.542969 C 269.503906 198.449219 267.953125 202.199219 265.1875 204.960938 C 262.425781 207.722656 258.679688 209.273438 254.773438 209.273438 L 117.839844 209.273438 C 113.933594 209.273438 110.183594 207.722656 107.421875 204.960938 C 104.660156 202.199219 103.105469 198.449219 103.105469 194.542969 C 103.105469 190.636719 104.660156 186.890625 107.421875 184.125 C 110.183594 181.363281 113.933594 179.8125 117.839844 179.8125 L 254.773438 179.8125 C 258.679688 179.8125 262.425781 181.363281 265.1875 184.125 C 267.953125 186.890625 269.503906 190.636719 269.503906 194.542969 Z M 269.503906 194.542969 " clip-rule="nonzero"/></clipPath></defs><g clip-path="url(#a75e76365c)"><g clip-path="url(#cc77d05869)"><path fill="#f26566" d="M 248.019531 83.058594 L 278.042969 83.058594 L 278.042969 314.679688 L 248.019531 314.679688 Z M 248.019531 83.058594 " fill-opacity="1" fill-rule="nonzero"/></g></g><g clip-path="url(#b24b235284)"><g clip-path="url(#d294e1d226)"><g clip-path="url(#40cd44f349)"><path fill="#f26566" d="M 186.328125 0.0117188 L 207.339844 21.023438 L 56.472656 171.890625 L 35.460938 150.878906 Z M 186.328125 0.0117188 " fill-opacity="1" fill-rule="nonzero"/></g></g></g><g clip-path="url(#7d335cad51)"><g clip-path="url(#416d5f7381)"><g clip-path="url(#904e919f93)"><path fill="#f26566" d="M 337.46875 150.886719 L 316.457031 171.902344 L 165.589844 21.035156 L 186.601562 0.0195312 Z M 337.46875 150.886719 " fill-opacity="1" fill-rule="nonzero"/></g></g></g><g clip-path="url(#6804ab3b8d)"><g clip-path="url(#4303df24ae)"><path fill="#f26566" d="M 171.3125 17.621094 L 201.335938 17.621094 L 201.335938 374.960938 L 171.3125 374.960938 Z M 171.3125 17.621094 " fill-opacity="1" fill-rule="nonzero"/></g></g><g clip-path="url(#773c0d222d)"><g clip-path="url(#492f0cb34a)"><path fill="#f26566" d="M 94.21875 83.058594 L 124.242188 83.058594 L 124.242188 314.679688 L 94.21875 314.679688 Z M 94.21875 83.058594 " fill-opacity="1" fill-rule="nonzero"/></g></g><g clip-path="url(#fc39c0a12d)"><g clip-path="url(#9f8143c840)"><path fill="#f26566" d="M 269.503906 179.8125 L 269.503906 209.273438 L 103.082031 209.273438 L 103.082031 179.8125 Z M 269.503906 179.8125 " fill-opacity="1" fill-rule="nonzero"/></g></g></svg>