<svg xmlns="http://www.w3.org/2000/svg" xmlns:xlink="http://www.w3.org/1999/xlink" width="500" zoomAndPan="magnify" viewBox="0 0 375 187.499995" height="250" preserveAspectRatio="xMidYMid meet" version="1.0"><defs><g/><clipPath id="c6d68fce90"><path d="M 0.5 50.511719 L 86.519531 50.511719 L 86.519531 136.53125 L 0.5 136.53125 Z M 0.5 50.511719 " clip-rule="nonzero"/></clipPath><clipPath id="08884f9882"><path d="M 56.109375 72.074219 L 62.269531 72.074219 L 62.269531 119.609375 L 56.109375 119.609375 Z M 56.109375 72.074219 " clip-rule="nonzero"/></clipPath><clipPath id="8924cbeb48"><path d="M 59.1875 72.074219 C 60.890625 72.074219 62.269531 73.449219 62.269531 75.152344 L 62.269531 116.507812 C 62.269531 118.210938 60.890625 119.589844 59.1875 119.589844 C 57.488281 119.589844 56.109375 118.210938 56.109375 116.507812 L 56.109375 75.152344 C 56.109375 73.449219 57.488281 72.074219 59.1875 72.074219 Z M 59.1875 72.074219 " clip-rule="nonzero"/></clipPath><clipPath id="236ec9c16e"><path d="M 13.566406 56.242188 L 46.582031 56.242188 L 46.582031 89.253906 L 13.566406 89.253906 Z M 13.566406 56.242188 " clip-rule="nonzero"/></clipPath><clipPath id="3a5abe750c"><path d="M 43.457031 55.039062 L 47.765625 59.347656 L 16.800781 90.3125 L 12.492188 86.003906 Z M 43.457031 55.039062 " clip-rule="nonzero"/></clipPath><clipPath id="1b47dea3ad"><path d="M 45.609375 57.191406 C 46.183594 57.765625 46.503906 58.539062 46.503906 59.347656 C 46.503906 60.15625 46.183594 60.929688 45.609375 61.503906 L 18.96875 88.140625 C 18.398438 88.714844 17.625 89.035156 16.816406 89.035156 C 16.007812 89.035156 15.230469 88.714844 14.660156 88.140625 C 14.089844 87.570312 13.765625 86.796875 13.765625 85.988281 C 13.765625 85.179688 14.089844 84.402344 14.660156 83.832031 L 41.300781 57.191406 C 41.871094 56.621094 42.644531 56.300781 43.457031 56.300781 C 44.265625 56.300781 45.039062 56.621094 45.609375 57.191406 Z M 45.609375 57.191406 " clip-rule="nonzero"/></clipPath><clipPath id="3eddcbaa06"><path d="M 40.390625 56.242188 L 73.40625 56.242188 L 73.40625 89.253906 L 40.390625 89.253906 Z M 40.390625 56.242188 " clip-rule="nonzero"/></clipPath><clipPath id="db82191252"><path d="M 74.460938 85.988281 L 70.148438 90.296875 L 39.183594 59.332031 L 43.496094 55.023438 Z M 74.460938 85.988281 " clip-rule="nonzero"/></clipPath><clipPath id="086a8a6196"><path d="M 72.304688 88.140625 C 71.734375 88.714844 70.957031 89.035156 70.148438 89.035156 C 69.339844 89.035156 68.566406 88.714844 67.992188 88.140625 L 41.351562 61.503906 C 40.78125 60.929688 40.460938 60.15625 40.460938 59.347656 C 40.460938 58.539062 40.78125 57.761719 41.351562 57.191406 C 41.925781 56.621094 42.699219 56.300781 43.507812 56.300781 C 44.316406 56.300781 45.09375 56.621094 45.664062 57.191406 L 72.304688 83.832031 C 72.875 84.402344 73.195312 85.179688 73.195312 85.988281 C 73.195312 86.796875 72.875 87.570312 72.304688 88.140625 Z M 72.304688 88.140625 " clip-rule="nonzero"/></clipPath><clipPath id="c33adcfe5d"><path d="M 40.375 58.648438 L 46.53125 58.648438 L 46.53125 131.976562 L 40.375 131.976562 Z M 40.375 58.648438 " clip-rule="nonzero"/></clipPath><clipPath id="0302f3ff95"><path d="M 43.453125 58.648438 C 45.15625 58.648438 46.53125 60.027344 46.53125 61.730469 L 46.53125 128.878906 C 46.53125 130.582031 45.15625 131.960938 43.453125 131.960938 C 41.753906 131.960938 40.375 130.582031 40.375 128.878906 L 40.375 61.730469 C 40.375 60.027344 41.753906 58.648438 43.453125 58.648438 Z M 43.453125 58.648438 " clip-rule="nonzero"/></clipPath><clipPath id="692aa6f41c"><path d="M 24.558594 72.074219 L 30.71875 72.074219 L 30.71875 119.609375 L 24.558594 119.609375 Z M 24.558594 72.074219 " clip-rule="nonzero"/></clipPath><clipPath id="cd438d2013"><path d="M 27.640625 72.074219 C 29.339844 72.074219 30.71875 73.449219 30.71875 75.152344 L 30.71875 116.507812 C 30.71875 118.210938 29.339844 119.589844 27.640625 119.589844 C 25.9375 119.589844 24.558594 118.210938 24.558594 116.507812 L 24.558594 75.152344 C 24.558594 73.449219 25.9375 72.074219 27.640625 72.074219 Z M 27.640625 72.074219 " clip-rule="nonzero"/></clipPath><clipPath id="062b7e66da"><path d="M 26.378906 91.921875 L 60.515625 91.921875 L 60.515625 97.964844 L 26.378906 97.964844 Z M 26.378906 91.921875 " clip-rule="nonzero"/></clipPath><clipPath id="5cfe39240c"><path d="M 60.515625 94.941406 C 60.515625 95.742188 60.199219 96.511719 59.632812 97.078125 C 59.066406 97.644531 58.296875 97.964844 57.496094 97.964844 L 29.40625 97.964844 C 28.605469 97.964844 27.835938 97.644531 27.269531 97.078125 C 26.703125 96.511719 26.382812 95.742188 26.382812 94.941406 C 26.382812 94.140625 26.703125 93.371094 27.269531 92.804688 C 27.835938 92.238281 28.605469 91.921875 29.40625 91.921875 L 57.496094 91.921875 C 58.296875 91.921875 59.066406 92.238281 59.632812 92.804688 C 60.199219 93.371094 60.515625 94.140625 60.515625 94.941406 Z M 60.515625 94.941406 " clip-rule="nonzero"/></clipPath></defs><g clip-path="url(#c6d68fce90)"><path fill="#160a22" d="M -8.097656 41.914062 L 95.070312 41.914062 L 95.070312 145.082031 L -8.097656 145.082031 Z M -8.097656 41.914062 " fill-opacity="1" fill-rule="nonzero"/><path fill="#160a22" d="M -8.097656 41.914062 L 95.070312 41.914062 L 95.070312 145.082031 L -8.097656 145.082031 Z M -8.097656 41.914062 " fill-opacity="1" fill-rule="nonzero"/></g><g clip-path="url(#08884f9882)"><g clip-path="url(#8924cbeb48)"><path fill="#f26566" d="M 56.109375 72.074219 L 62.269531 72.074219 L 62.269531 119.585938 L 56.109375 119.585938 Z M 56.109375 72.074219 " fill-opacity="1" fill-rule="nonzero"/></g></g><g clip-path="url(#236ec9c16e)"><g clip-path="url(#3a5abe750c)"><g clip-path="url(#1b47dea3ad)"><path fill="#f26566" d="M 43.457031 55.039062 L 47.765625 59.347656 L 16.816406 90.296875 L 12.507812 85.984375 Z M 43.457031 55.039062 " fill-opacity="1" fill-rule="nonzero"/></g></g></g><g clip-path="url(#3eddcbaa06)"><g clip-path="url(#db82191252)"><g clip-path="url(#086a8a6196)"><path fill="#f26566" d="M 74.460938 85.988281 L 70.148438 90.296875 L 39.199219 59.347656 L 43.511719 55.039062 Z M 74.460938 85.988281 " fill-opacity="1" fill-rule="nonzero"/></g></g></g><g clip-path="url(#c33adcfe5d)"><g clip-path="url(#0302f3ff95)"><path fill="#f26566" d="M 40.375 58.648438 L 46.53125 58.648438 L 46.53125 131.953125 L 40.375 131.953125 Z M 40.375 58.648438 " fill-opacity="1" fill-rule="nonzero"/></g></g><g clip-path="url(#692aa6f41c)"><g clip-path="url(#cd438d2013)"><path fill="#f26566" d="M 24.558594 72.074219 L 30.71875 72.074219 L 30.71875 119.585938 L 24.558594 119.585938 Z M 24.558594 72.074219 " fill-opacity="1" fill-rule="nonzero"/></g></g><g clip-path="url(#062b7e66da)"><g clip-path="url(#5cfe39240c)"><path fill="#f26566" d="M 26.378906 91.921875 L 60.515625 91.921875 L 60.515625 97.964844 L 26.378906 97.964844 Z M 26.378906 91.921875 " fill-opacity="1" fill-rule="nonzero"/></g></g><g fill="#ffffff" fill-opacity="1"><g transform="translate(76.8775, 109.206539)"><g><path d="M 20.328125 -23.140625 L 20.328125 -20.421875 C 18.65625 -22.5 16.15625 -23.796875 12.78125 -23.796875 C 6.625 -23.796875 1.53125 -18.46875 1.53125 -11.578125 C 1.53125 -4.671875 6.625 0.640625 12.78125 0.640625 C 16.15625 0.640625 18.65625 -0.640625 20.328125 -2.734375 L 20.328125 0 L 26.296875 0 L 26.296875 -23.140625 Z M 13.890625 -5.046875 C 10.234375 -5.046875 7.5 -7.6875 7.5 -11.578125 C 7.5 -15.46875 10.234375 -18.109375 13.890625 -18.109375 C 17.59375 -18.109375 20.328125 -15.46875 20.328125 -11.578125 C 20.328125 -7.6875 17.59375 -5.046875 13.890625 -5.046875 Z M 13.890625 -5.046875 "/></g></g><g transform="translate(105.855673, 109.206539)"><g><path d="M 28.328125 -23.796875 C 25.1875 -23.796875 22.875 -22.546875 21.4375 -20.46875 C 20.140625 -22.59375 18.015625 -23.796875 15.140625 -23.796875 C 12.171875 -23.796875 10 -22.640625 8.703125 -20.6875 L 8.703125 -23.140625 L 2.734375 -23.140625 L 2.734375 0 L 8.703125 0 L 8.703125 -13.015625 C 8.703125 -16.484375 10.515625 -18.234375 13.0625 -18.234375 C 15.5625 -18.234375 16.9375 -16.578125 16.9375 -13.84375 L 16.9375 0 L 22.921875 0 L 22.921875 -13.015625 C 22.921875 -16.484375 24.578125 -18.234375 27.21875 -18.234375 C 29.71875 -18.234375 31.109375 -16.578125 31.109375 -13.84375 L 31.109375 0 L 37.078125 0 L 37.078125 -14.265625 C 37.078125 -20.046875 33.609375 -23.796875 28.328125 -23.796875 Z M 28.328125 -23.796875 "/></g></g></g><g fill="#ffffff" fill-opacity="1"><g transform="translate(145.295606, 109.206539)"><g><path d="M 16.203125 -23.796875 C 12.828125 -23.796875 10.375 -22.546875 8.703125 -20.421875 L 8.703125 -23.140625 L 2.734375 -23.140625 L 2.734375 9.265625 L 8.703125 9.265625 L 8.703125 -2.734375 C 10.375 -0.609375 12.828125 0.640625 16.203125 0.640625 C 22.40625 0.640625 27.5 -4.671875 27.5 -11.578125 C 27.5 -18.46875 22.40625 -23.796875 16.203125 -23.796875 Z M 15.09375 -5.046875 C 11.4375 -5.046875 8.703125 -7.6875 8.703125 -11.578125 C 8.703125 -15.46875 11.4375 -18.109375 15.09375 -18.109375 C 18.796875 -18.109375 21.53125 -15.46875 21.53125 -11.578125 C 21.53125 -7.6875 18.796875 -5.046875 15.09375 -5.046875 Z M 15.09375 -5.046875 "/></g></g><g transform="translate(174.273779, 109.206539)"><g><path d="M 2.734375 0 L 8.703125 0 L 8.703125 -33.796875 L 2.734375 -33.796875 Z M 2.734375 0 "/></g></g><g transform="translate(185.707659, 109.206539)"><g><path d="M 5.6875 -25.921875 C 7.734375 -25.921875 9.390625 -27.59375 9.390625 -29.578125 C 9.390625 -31.578125 7.734375 -33.28125 5.6875 -33.28125 C 3.703125 -33.28125 2.03125 -31.578125 2.03125 -29.578125 C 2.03125 -27.59375 3.703125 -25.921875 5.6875 -25.921875 Z M 2.734375 0 L 8.703125 0 L 8.703125 -23.140625 L 2.734375 -23.140625 Z M 2.734375 0 "/></g></g><g transform="translate(197.141538, 109.206539)"><g><path d="M 15.1875 -27.3125 L 15.1875 -33.0625 C 7.828125 -33.515625 4.3125 -29.765625 4.3125 -23.375 L 4.3125 -23.140625 L 0.96875 -23.140625 L 0.96875 -17.40625 L 4.3125 -17.40625 L 4.3125 0 L 10.28125 0 L 10.28125 -17.40625 L 15.1875 -17.40625 L 15.1875 -23.140625 L 10.28125 -23.140625 L 10.28125 -23.375 C 10.28125 -26.53125 12.078125 -27.546875 15.1875 -27.3125 Z M 15.1875 -27.3125 "/></g></g><g transform="translate(212.32499, 109.206539)"><g><path d="M 5.6875 -25.921875 C 7.734375 -25.921875 9.390625 -27.59375 9.390625 -29.578125 C 9.390625 -31.578125 7.734375 -33.28125 5.6875 -33.28125 C 3.703125 -33.28125 2.03125 -31.578125 2.03125 -29.578125 C 2.03125 -27.59375 3.703125 -25.921875 5.6875 -25.921875 Z M 2.734375 0 L 8.703125 0 L 8.703125 -23.140625 L 2.734375 -23.140625 Z M 2.734375 0 "/></g></g><g transform="translate(223.758869, 109.206539)"><g><path d="M 8.703125 -19.171875 L 8.703125 -23.140625 L 2.734375 -23.140625 L 2.734375 0 L 8.703125 0 L 8.703125 -11.0625 C 8.703125 -15.921875 12.640625 -17.3125 15.734375 -16.9375 L 15.734375 -23.609375 C 12.828125 -23.609375 9.90625 -22.3125 8.703125 -19.171875 Z M 8.703125 -19.171875 "/></g></g><g transform="translate(240.238469, 109.206539)"><g><path d="M 28.328125 -23.796875 C 25.1875 -23.796875 22.875 -22.546875 21.4375 -20.46875 C 20.140625 -22.59375 18.015625 -23.796875 15.140625 -23.796875 C 12.171875 -23.796875 10 -22.640625 8.703125 -20.6875 L 8.703125 -23.140625 L 2.734375 -23.140625 L 2.734375 0 L 8.703125 0 L 8.703125 -13.015625 C 8.703125 -16.484375 10.515625 -18.234375 13.0625 -18.234375 C 15.5625 -18.234375 16.9375 -16.578125 16.9375 -13.84375 L 16.9375 0 L 22.921875 0 L 22.921875 -13.015625 C 22.921875 -16.484375 24.578125 -18.234375 27.21875 -18.234375 C 29.71875 -18.234375 31.109375 -16.578125 31.109375 -13.84375 L 31.109375 0 L 37.078125 0 L 37.078125 -14.265625 C 37.078125 -20.046875 33.609375 -23.796875 28.328125 -23.796875 Z M 28.328125 -23.796875 "/></g></g></g><g fill="#f26566" fill-opacity="1"><g transform="translate(279.684825, 109.206539)"><g><path d="M 15.609375 -23.796875 C 12.5 -23.796875 10.09375 -22.640625 8.703125 -20.5625 L 8.703125 -32.40625 L 2.734375 -32.40625 L 2.734375 0 L 8.703125 0 L 8.703125 -12.5 C 8.703125 -16.53125 10.875 -18.234375 13.796875 -18.234375 C 16.484375 -18.234375 18.375 -16.625 18.375 -13.46875 L 18.375 0 L 24.359375 0 L 24.359375 -14.21875 C 24.359375 -20.375 20.515625 -23.796875 15.609375 -23.796875 Z M 15.609375 -23.796875 "/></g></g></g><g fill="#f26566" fill-opacity="1"><g transform="translate(306.394735, 109.206539)"><g><path d="M 18.015625 -23.140625 L 18.015625 -10.640625 C 18.015625 -6.625 15.828125 -4.90625 12.921875 -4.90625 C 10.234375 -4.90625 8.328125 -6.53125 8.328125 -9.671875 L 8.328125 -23.140625 L 2.359375 -23.140625 L 2.359375 -8.9375 C 2.359375 -2.78125 6.203125 0.640625 11.109375 0.640625 C 14.21875 0.640625 16.625 -0.515625 18.015625 -2.59375 L 18.015625 0 L 23.984375 0 L 23.984375 -23.140625 Z M 18.015625 -23.140625 "/></g></g></g><g fill="#f26566" fill-opacity="1"><g transform="translate(333.104645, 109.206539)"><g><path d="M 16.203125 -23.796875 C 12.828125 -23.796875 10.375 -22.546875 8.703125 -20.421875 L 8.703125 -32.40625 L 2.734375 -32.40625 L 2.734375 0 L 8.703125 0 L 8.703125 -2.734375 C 10.375 -0.609375 12.828125 0.640625 16.203125 0.640625 C 22.40625 0.640625 27.5 -4.671875 27.5 -11.578125 C 27.5 -18.46875 22.40625 -23.796875 16.203125 -23.796875 Z M 15.09375 -5.046875 C 11.4375 -5.046875 8.703125 -7.6875 8.703125 -11.578125 C 8.703125 -15.46875 11.4375 -18.109375 15.09375 -18.109375 C 18.796875 -18.109375 21.53125 -15.46875 21.53125 -11.578125 C 21.53125 -7.6875 18.796875 -5.046875 15.09375 -5.046875 Z M 15.09375 -5.046875 "/></g></g><g transform="translate(362.082818, 109.206539)"><g><path d="M 6.203125 0.609375 C 8.375 0.609375 10.140625 -1.15625 10.140625 -3.328125 C 10.140625 -5.515625 8.375 -7.265625 6.203125 -7.265625 C 4.03125 -7.265625 2.265625 -5.515625 2.265625 -3.328125 C 2.265625 -1.15625 4.03125 0.609375 6.203125 0.609375 Z M 6.203125 0.609375 "/></g></g></g></svg>